<?xml version="1.0" encoding="UTF-8" standalone="no"?><!DOCTYPE svg PUBLIC "-//W3C//DTD SVG 1.1//EN" "http://www.w3.org/Graphics/SVG/1.1/DTD/svg11.dtd"><svg width="100%" height="100%" viewBox="0 0 1439 360" version="1.1" xmlns="http://www.w3.org/2000/svg" xmlns:xlink="http://www.w3.org/1999/xlink" xml:space="preserve" xmlns:serif="http://www.serif.com/" style="fill-rule:evenodd;clip-rule:evenodd;stroke-linejoin:round;stroke-miterlimit:2;"><path d="M158.407,641.316c-60.575,60.575 -158.932,60.575 -219.507,0l-0.001,0c-60.574,-60.575 -60.574,-158.933 0,-219.507l281.125,-281.125c60.574,-60.575 158.932,-60.575 219.507,0l0.001,0.001c60.574,60.574 60.574,158.932 0,219.507l-281.125,281.124Z" style="fill:#ff8668;fill-opacity:0.07;"/><path d="M1222.41,238.316c-60.575,60.575 -158.932,60.575 -219.507,0l-0.001,0c-60.574,-60.575 -60.574,-158.933 0,-219.507l281.125,-281.125c60.574,-60.575 158.932,-60.575 219.507,0l0.001,0.001c60.574,60.574 60.574,158.932 0,219.507l-281.125,281.124Z" style="fill:#ff8766;fill-opacity:0.07;"/></svg>